{"title":"Friday the 13th 2009 DVDRip BigPerm LKRG[ExtraTorrent]","uid":5647542,"size":764367576,"categoryP":"video","categoryS":"movies","magnet":"?xt=urn:btih:6a5dc540e2eb8944c714f2d16468849adf6f12da&amp;dn=Friday+the+13th+2009+DVDRip+BigPerm+LKRG%5BExtraTorrent%5D&amp;tr=udp%3A%2F%2Ftracker.openbittorrent.com%3A80&amp;tr=udp%3A%2F%2Fopen.demonii.com%3A1337&amp;tr=udp%3A%2F%2Ftracker.coppersurfer.tk%3A6969&amp;tr=udp%3A%2F%2Fexodus.desync.com%3A6969","seeders":6,"leechers":1,"uploader":"raymondhome","files":-1,"time":1277391369,"description":"Love for All and Sharing is the first step to solving all the problems of humanity.\n\nWebsites I want to share.\n\n    &lt;a href=&quot;\nhttp://www.shareintl.org/&quot; rel=&quot;nofollow&quot; target=&quot;_NEW&quot;&gt;\nhttp://www.shareintl.org/&lt;/a&gt;\n\n    &lt;a href=&quot;\nhttp://www.lightmiddleway.com&quot; rel=&quot;nofollow&quot; target=&quot;_NEW&quot;&gt;\nhttp://www.lightmiddleway.com&lt;/a&gt;\n\n\nThank you very much\n\nNo credit for me...credit to EVERYONE for sharing\n &lt;a href=&quot;\nhttp://thepiratebay.se/user/raymondhome/&quot; rel=&quot;nofollow&quot; target=&quot;_NEW&quot;&gt;\nhttp://thepiratebay.se/user/raymondhome/&lt;/a&gt;\n\nPLOT\nA group of young adults discover a boarded up Camp Crystal Lake, where they soon encounter Jason Voorhees and his deadly intentions.\n\nFormat : MPEG-4\nDuration : 1h 37mn\nOverall bit rate : 1 049 Kbps\n\nVideo:\nID : 1\nFormat : AVC\nFormat/Info : Advanced Video Codec\nFormat profile : &lt;a class=&quot;__cf_email__&quot; href=&quot;/cdn-cgi/l/email-protection&quot; data-cfemail=&quot;a3eec2cacde3ef908d93&quot;&gt;[email&amp;#160;protected]&lt;/a&gt;&lt;script cf-hash='f9e31' type=&quot;text/javascript&quot;&gt;\n/* &lt;![CDATA[ */!function(){try{var t=&quot;currentScript&quot;in document?document.currentScript:function(){for(var t=document.getElementsByTagName(&quot;script&quot;),e=t.length;e--;)if(t[e].getAttribute(&quot;cf-hash&quot;))return t[e]}();if(t&amp;&amp;t.previousSibling){var e,r,n,i,c=t.previousSibling,a=c.getAttribute(&quot;data-cfemail&quot;);if(a){for(e=&quot;&quot;,r=parseInt(a.substr(0,2),16),n=2;a.length-n;n+=2)i=parseInt(a.substr(n,2),16)^r,e+=String.fromCharCode(i);e=document.createTextNode(e),c.parentNode.replaceChild(e,c)}}}catch(u){}}();/* ]]&gt; */&lt;/script&gt;\nFormat settings, CABAC : Yes\nFormat settings, ReFrames : 2 frames\nCodec ID : avc1\nCodec ID/Info : Advanced Video Coding\nDuration : 1h 37mn\nBit rate mode : Variable\nBit rate : 884 Kbps\nWidth : 718 pixels\nHeight : 360 pixels\nDisplay aspect ratio : 2.35:1\nFrame rate mode : Variable\nFrame rate : 23.976 fps\nMinimum frame rate : 13.320 fps\nMaximum frame rate : 29.970 fps\nResolution : 8 bits\nColorimetry : 4:2:0\nScan type : Progressive\nBits/(Pixel*Frame) : 0.143\nStream size : 615 MiB (84%)\nWriting library : x264 core 79\n\nAudio:\nID : 2\nFormat : AAC\nFormat/Info : Advanced Audio Codec\nFormat version : Version 4\nFormat profile : LC\nFormat settings, SBR : No\nCodec ID : 40\nDuration : 1h 37mn\nBit rate mode : Variable\nBit rate : 159 Kbps\nMaximum bit rate : 254 Kbps\nChannel(s) : 2 channels\nChannel positions : Front: L R\nSampling rate : 48.0 KHz\nStream size : 111 MiB (15%)\nLanguage : English\n\ncredit BigPerm1828 BIG BIG BIG TIME &amp; to all the people who made it possible for us to share this...especially EVERYONE involve in the production of the movie...IF YOU LIKE IT...BUY IT :)\n\n*****help what we can with others in need...the world is ONE big family*****","torrent":{"xt":"urn:btih:6a5dc540e2eb8944c714f2d16468849adf6f12da","amp;dn":"Friday+the+13th+2009+DVDRip+BigPerm+LKRG%5BExtraTorrent%5D","amp;tr":["udp%3A%2F%2Ftracker.openbittorrent.com%3A80","udp%3A%2F%2Fopen.demonii.com%3A1337","udp%3A%2F%2Ftracker.coppersurfer.tk%3A6969","udp%3A%2F%2Fexodus.desync.com%3A6969"],"infoHash":"6a5dc540e2eb8944c714f2d16468849adf6f12da","infoHashBuffer":{"type":"Buffer","data":[106,93,197,64,226,235,137,68,199,20,242,209,100,104,132,154,223,111,18,218]},"announce":[],"urlList":[]}}